<svg version="1.0" xmlns="http://www.w3.org/2000/svg" viewBox="0 0 382.000000 382.000000" preserveAspectRatio="xMidYMid meet" fill="rgb(0, 0, 0)" style="color: rgb(58, 66, 104);"> <defs> <linearGradient id="sub-icon2" x1="0%" y1="0%" x2="0%" y2="100%"> <stop offset="0%" style="stop-color:#0431b8;stop-opacity:1"></stop> <stop offset="100%" style="stop-color:#007cfb;stop-opacity:1"></stop> </linearGradient> </defs> <g fill="url(&quot;#sub-icon2&quot;)" transform="translate(0.000000,382.000000) scale(0.100000,-0.100000)" stroke="none"><path d="M1856 3797 c-20 -20 -23 -36 -29 -142 -50 -901 -761 -1612 -1662 -1662 -106 -6 -122 -9 -142 -29 -30 -30 -30 -78 0 -108 20 -20 36 -23 142 -29 901 -50 1612 -761 1662 -1662 6 -106 9 -122 29 -142 30 -30 78 -30 108 0 20 20 23 36 29 142 50 901 761 1612 1662 1662 106 6 122 9 142 29 30 30 30 78 0 108 -20 20 -36 23 -142 29 -901 50 -1612 761 -1662 1662 -6 106 -9 122 -29 142 -14 14 -35 23 -54 23 -19 0 -40 -9 -54 -23z"></path></g> </svg>