<svg xmlns="http://www.w3.org/2000/svg" width="512" height="512" viewBox="0 0 32 32" fill="rgb(140, 209, 2)" style="color: rgb(58, 66, 104);"><path d="M27.438,5H4.2A2.195,2.195,0,0,0,2.882,8.952l12.541,8.864a1,1,0,0,0,1.165-.007l11-8a1,1,0,1,0-1.176-1.618L15.992,15.77,4.077,7.349A.2.2,0,0,1,4.2,7h23.24A1.564,1.564,0,0,1,29,8.562V23.438A1.563,1.563,0,0,1,27.438,25H4.562A1.563,1.563,0,0,1,3,23.438V12a1,1,0,0,0-2,0V23.438A3.566,3.566,0,0,0,4.562,27H27.438A3.566,3.566,0,0,0,31,23.438V8.562A3.566,3.566,0,0,0,27.438,5Z" style="fill:rgb(0,0,0)"></path></svg>